<?xml version="1.0" encoding="UTF-8" standalone="no"?>
<svg
   xmlns:dc="http://purl.org/dc/elements/1.1/"
   xmlns:cc="http://creativecommons.org/ns#"
   xmlns:rdf="http://www.w3.org/1999/02/22-rdf-syntax-ns#"
   xmlns:svg="http://www.w3.org/2000/svg"
   xmlns="http://www.w3.org/2000/svg"
   xmlns:sodipodi="http://sodipodi.sourceforge.net/DTD/sodipodi-0.dtd"
   xmlns:inkscape="http://www.inkscape.org/namespaces/inkscape"
   width="224pt"
   height="278pt"
   viewBox="0 0 224 278"
   version="1.1"
   id="svg2"
   inkscape:version="0.47 r22583"
   sodipodi:docname="Sos-brigade.svg">
  <metadata
     id="metadata58">
    <rdf:RDF>
      <cc:Work
         rdf:about="">
        <dc:format>image/svg+xml</dc:format>
        <dc:type
           rdf:resource="http://purl.org/dc/dcmitype/StillImage" />
      </cc:Work>
    </rdf:RDF>
  </metadata>
  <defs
     id="defs56" />
  <sodipodi:namedview
     pagecolor="#ffffff"
     bordercolor="#666666"
     borderopacity="1"
     objecttolerance="10"
     gridtolerance="10"
     guidetolerance="10"
     inkscape:pageopacity="0"
     inkscape:pageshadow="2"
     inkscape:window-width="1280"
     inkscape:window-height="725"
     id="namedview54"
     showgrid="false"
     inkscape:zoom="1"
     inkscape:cx="313.25044"
     inkscape:cy="173.75"
     inkscape:window-x="0"
     inkscape:window-y="24"
     inkscape:window-maximized="1"
     inkscape:current-layer="svg2" />
  <path
     style="fill:#34c0ec;fill-opacity:1"
     d="M 120,4.4375 C 108.4125,5.95 97.39375,9.98125 86.46875,13.96875 c -13.275,4.675 -24.60625,13.35 -35.53125,22 C 36.35,47.93125 25.13125,63.5875 16.71875,80.375 7.15625,99.7125 1.025,120.9875 0.5,142.625 c -0.1375,33.4 9.6125,67.40625 30.5625,93.78125 12.15,16.425 28.78125,28.88125 46.46875,38.78125 7.9375,4.575 16.85,7.1125 24.5625,12.125 3.9875,-4.9625 10.95625,-4.13125 16.34375,-6.40625 3.9875,-1.45 5.05,-6.69375 9.125,-7.96875 8.625,-1.4875 17.4125,0.9 26.0625,-0.3125 3.1375,-1.425 5.5375,-4.41875 6.625,-7.65625 -0.8375,-2.9875 -3.29375,-5.0875 -5.71875,-6.8125 -6.6875,-4.65 -14.65625,-6.88125 -21.59375,-11.09375 -4.1375,-2.375 -7.7125,-5.5625 -11.5,-8.4375 l -0.75,1.28125 c -1.2375,3.1 -2.49375,6.2375 -4.28125,9.0625 2.425,1.6125 5.36875,3.09375 6.28125,6.09375 -0.4375,4.825 -3.14375,9 -5.21875,13.25 -4.22813,-0.82812 -8.3865,-1.90667 -12.46875,-3.21875 -1.02056,-0.32802 -2.0211,-0.64311 -3.03125,-1 C 74.694686,254.45762 51.302734,234.38242 36.90625,209.3125 30.81875,198.5875 26.7625,186.85 23.75,174.9375 20.4,162.3375 20.88125,149.1625 21.15625,136.25 21.51875,121.7375 25.95,107.69375 31.8125,94.53125 c 12.425,-27.2 34.94375,-50.01875 62.84375,-61.21875 0.2875,1.023438 0.603564,2.045874 0.9375,3.0625 0.333936,1.016626 0.675195,2.000684 1.0625,3 0.387305,0.999316 0.802393,1.997241 1.25,2.96875 0.223804,0.485754 0.447321,0.960666 0.6875,1.4375 2.16161,4.291507 5.00469,8.2125 8.84375,11.25 6.29297,5.871094 14.84486,8.172318 21.65625,13.21875 0.45409,0.336429 0.90625,0.7 1.34375,1.0625 C 117.775,68.375 106.175,62.55625 94.75,57.46875 c 3.925,3.725 8.525,7.69375 8.25,13.65625 8.8875,4.3 18.375,7.53125 28.1875,8.84375 5.2125,0.65 12.13125,0.2 14.46875,-5.4375 2.1,-3.525 -0.325,-7.46875 -3.125,-9.71875 -7.525,-6.2875 -17.36875,-8.75625 -25.15625,-14.65625 -6.9875,-4.95 -12.55625,-12.675 -12.96875,-21.4375 C 105.00625,18.54375 112.3,10.3625 120,4.4375 z M 88.149257,106.50979 c -0.6,0.7375 -2.455507,3.08396 -3.055507,3.83396 -1.0625,1.6125 -2.025,3.28125 -2.9375,4.96875 0.878125,0.78125 1.750977,1.54121 2.625,2.34375 0.01084,0.01 0.02042,0.0213 0.03125,0.0312 0.431522,0.39661 0.859774,0.81137 1.28125,1.21875 0.421334,0.40724 0.844583,0.82838 1.25,1.25 1.64375,1.70313 3.14375,3.53125 4.28125,5.625 0.08516,0.16016 0.152582,0.33698 0.21875,0.5 0.197955,0.48949 0.319043,0.9895 0.375,1.5 0.230859,2.03672 -0.503125,4.20313 -0.71875,6.21875 -0.432812,2.05 -0.763916,4.10117 -1,6.1875 -0.0012,0.0102 0.0012,0.021 0,0.0312 -0.23396,2.07621 -0.368351,4.19001 -0.40625,6.28125 -0.03809,2.10156 0.02632,4.18555 0.1875,6.28125 0.08059,1.04785 0.181854,2.08257 0.3125,3.125 0.0013,0.0102 -0.0013,0.021 0,0.0312 1.178942,9.3711 4.398722,18.47731 9.6875,26.34375 0.56562,0.85781 1.15789,1.69248 1.78125,2.5 0.62354,0.80735 1.26797,1.57646 1.9375,2.34375 0.005,0.006 -0.005,0.0252 0,0.0312 0.66478,0.76123 1.3642,1.48669 2.0625,2.21875 0.005,0.006 -0.005,0.0257 0,0.0312 0.69872,0.7321 1.43573,1.4431 2.15625,2.15625 1.45156,1.43672 2.9375,2.85918 4.40625,4.28125 1.46816,1.42266 2.92188,2.85313 4.3125,4.34375 -1.6875,2.35 -3.45,4.675 -5.25,6.9375 0.1625,0.075 0.475,0.2375 0.625,0.3125 2.5875,1.1 5.16875,2.15 7.78125,3.1875 6.35,-7.275 14.71875,-14.1125 24.84375,-14.1875 8.2875,0.05 17.10625,-1.2625 24.84375,2.4375 7.75,3.2375 14.94375,8.25 23.46875,9.25 -3.6625,-7.225 -9.6125,-12.86875 -15.25,-18.53125 -2.025,-1.6875 -4.64375,-5.05 -7.40625,-2.625 -12.3875,8.4875 -28.79375,9.38125 -42.90625,5.21875 -8.9,-3.325 -18.1125,-8.55625 -22.0625,-17.65625 -5.3,-11.475 -8.21875,-24.61875 -5.40625,-37.15625 0.525,-4.3875 2.4,-8.7625 1.8125,-13.1875 -3.4625,-6.625 -8.806993,-12.34021 -13.881993,-17.67771 z"
     id="path14"
     sodipodi:nodetypes="cccccccccccccccccccsscccccsssscsccccccccccccssssssscsssssscssssssscccccccccccccc"
     transform="scale(0.8,0.8)" />
  <path
     style="fill:#91bc3d;fill-opacity:1"
     d="m 167.59375,5.3125 c -1.525,6.3125 -5.01875,11.85 -7.71875,17.6875 -8.2625,-0.175 -16.55,-1.13125 -24.8125,-0.90625 -5.1,-0.6125 -9.7,7.06875 -5.5625,10.78125 9.85,8.8125 23.98125,11.1875 33.40625,20.5625 6.5625,6.425 5.85625,16.3125 5.03125,24.6875 -1.7625,9.65 -11.06875,16.04375 -19.90625,18.71875 -8.85,1.1375 -17.94375,1.075 -26.84375,0.5625 -9.1125,-3.15 -16.93125,-9.675 -26.65625,-11.25 0.6875,2.2375 1.39375,4.53125 3.03125,6.28125 4.95,5.7875 10.7375,10.84375 16.3125,16.03125 5.9875,-2.9375 11.9375,-6.18125 18.5,-7.65625 15.0125,-3.525 32.125,0.0875 43.1875,11.1875 7.7,7.675 10.7875,18.65 11.875,29.1875 1.125,9.625 -0.50625,19.31875 -3.53125,28.46875 C 191.01875,178.03125 198.5875,186.05 205,195 c 4.275,5.75 6.525,13.39375 4.25,20.40625 -1.5125,5.125 -6.58125,8.44375 -11.78125,8.78125 -9.275,0.925 -17.8125,-3.4875 -26.375,-6.3125 -8.075,-2.7625 -17.01875,-4.675 -25.40625,-2.25 -4.9625,1.6875 -5.24375,8.5 -2.09375,12 6.575,8.5875 18.1625,9.83125 26.5625,15.90625 10.8375,6.375 16.0125,21.69375 10,32.96875 -3.525,5.8875 -9.18125,10.00625 -14.90625,13.59375 11.375,-4.45 23.2,-7.81875 34.1875,-13.21875 19.7375,-9.375 37.28125,-23.33125 50.84375,-40.46875 5.75,-7.7875 10.35,-16.35625 14.875,-24.90625 9.325,-17.575 13.26875,-37.4375 14.84375,-57.125 l 0,-12.65625 c -0.675,-19.375 -5.50625,-38.43125 -13.09375,-56.21875 -6.325,-15.0375 -15.9125,-28.5125 -27.3125,-40.125 -13.1375,-13.8125 -29.2,-24.825 -46.9375,-31.8125 -8.175,-3.3125 -16.75,-5.35 -25.0625,-8.25 z m 2.1875,21.46875 c 13.025,3.6875 25.8375,8.78125 37,16.53125 24.625,16.8625 42.60625,42.875 50.15625,71.6875 3.425,14.3375 2.54375,29.23125 2.53125,43.84375 -0.025,19.4125 -7.7625,37.93125 -17.5,54.40625 -11.4375,19.375 -29.31875,34.03125 -48.59375,45.15625 -3.5,-4.0125 -5.1125,-9.25625 -8.5625,-13.28125 -4.825,-5.7875 -11.0625,-10.15 -17.6875,-13.625 -3.8,-2.0625 -7.975,-3.675 -11.0625,-6.8125 13.5125,-0.05 25.36875,9.29375 38.96875,9.15625 6.975,-0.0125 13.18125,-3.6 18.53125,-7.75 3.75,-3.025 9.24375,-2.59375 12.71875,-6.03125 4,-4.2 6.6625,-9.45625 9.375,-14.53125 5.9875,-12.35 11.85625,-25.35625 12.46875,-39.28125 0.4,-12.5625 1.4,-25.19375 -0.0625,-37.71875 -5.45,-28.95 -20.4,-57.13125 -44.875,-74.28125 -7.1375,-5.075 -14.69375,-9.94375 -23.15625,-12.46875 -4.475,-1.55 -9.0375,0.55 -13.5625,0.375 -2.1125,-0.4625 -2.1375,-2.93125 -1.875,-4.65625 0.6875,-3.9875 3.0125,-7.39375 5.1875,-10.71875 z m 5.40625,22.0625 c 0.33804,-0.02285 0.66094,-0.0063 1,0.0625 7.3375,0.7625 13.9125,4.64375 20.0625,8.46875 17.9,11.4 30.7,29.46875 38.5,48.96875 6.2375,15.3875 8.01875,32.2 7.65625,48.6875 -0.275,14.9625 -4.4875,29.58125 -10.4375,43.21875 -3.275,7.0375 -6.925,14.34375 -13.25,19.15625 -1.6375,-1.525 -3.21875,-3.0875 -4.78125,-4.6875 5.525,-11.425 11.9625,-22.525 15.5625,-34.75 3.15,-10.6875 3.25,-21.9625 2.875,-33 C 232,134.88125 231.40625,124.6375 228.15625,115 221.03125,94.575 207.94375,75.75 189.40625,64.1875 183.85625,60.275 177.15,58.15 172,53.6875 c -1.30156,-2.428125 0.82124,-4.683789 3.1875,-4.84375 z m 3.90625,18.46875 c 5.8375,1.025 10.48125,5.0875 14.96875,8.6875 14.45,12.8875 25.51875,29.975 29.71875,49 4.525,20.0125 3.275,41.45625 -4.4375,60.53125 -0.9375,2.5625 -2.39375,4.88125 -4.28125,6.84375 -6.17364,-15.22372 -8.14872,-13.64378 -18.40625,-23.59375 -0.83822,-24.70354 3.39359,-40.77093 -12.4375,-60.53125 -3.825,-4.5375 -8.78125,-7.9875 -12.34375,-12.75 9.54248,-15.452849 10.11728,-10.201377 7.21875,-28.1875 z"
     transform="scale(0.8,0.8)"
     id="path16"
     sodipodi:nodetypes="cccccccccccccccccccccccccccccccccccccccccccccccccccccccccccccccccccccccccccc" />
  <path
     style="fill:#03a14b;fill-opacity:1"
     d="m 79.90625,49.8125 c -6.0375,0.6375 -10.575,5.2 -14.8125,9.125 -12.6375,12.75 -21.81875,28.63125 -28.15625,45.34375 -4.425,11.3875 -6.15,23.58125 -6.6875,35.71875 -1.15,27.7875 6.4625,56.48125 23.625,78.65625 11.9125,15.3875 27.4375,28.7 45.9375,35.3125 6.05,2.2875 12.83125,0.25 16.59375,-5 1.7875,-2.825 4.09254,-7.01129 5.33004,-10.11129 -0.1125,-4.6375 -2.72379,-8.01371 -3.36129,-12.57621 -2.4875,6.925 -4.6375,14.39375 -9.5625,20.03125 -0.96875,1.23125 -2.3,1.58906 -3.6875,1.53125 -0.34687,-0.0145 -0.71191,-0.064 -1.0625,-0.125 -1.05176,-0.18289 -2.07656,-0.55 -3,-0.90625 -30.9375,-12.575 -55.45,-41.1125 -61.1875,-74.25 -3.5375,-23.725 -2.1875,-48.6 6.5,-71.125 C 52.1,86.4125 61.65,73.05 73.125,61.875 c 2.05,-2 4.49375,-3.49375 6.96875,-4.90625 1.575,1.3875 3.15625,2.79375 4.71875,4.21875 -3.459375,5.45625 -8.43125,9.604492 -12.875,14.21875 -0.740625,0.769043 -1.453906,1.540161 -2.15625,2.34375 -0.702344,0.803589 -1.385937,1.645313 -2.03125,2.5 -11.85,15.2875 -19.26875,34.15625 -20.21875,53.53125 -0.95,13.7375 -1.5375,27.86875 2.5,41.21875 3.44375,12.9625 9.784375,25.175 18.34375,35.53125 0.534961,0.64727 1.073,1.30495 1.625,1.9375 8.279995,9.48818 18.478516,17.28516 29.96875,22.5 0.91016,0.54687 1.84842,0.74812 2.78125,0.6875 0.5597,-0.0364 1.12173,-0.16553 1.65625,-0.375 4.27617,-1.67578 7.35,-8.34375 2.8125,-11.25 -5.275,-3.975 -11.50625,-6.5875 -16.59375,-10.875 -11.404688,-8.59219 -20.516049,-20.23723 -26.21875,-33.3125 -0.316817,-0.7264 -0.610765,-1.45242 -0.90625,-2.1875 -3.841309,-9.55604 -5.884766,-19.80781 -5.65625,-30.1875 C 57.04375,127.14375 62.45,106.125 75.4375,90.1875 83.883392,78.394872 93.8125,77.479167 103,71.125 103.275,65.1625 98.675,61.19375 94.75,57.46875 90.2125,54.33125 85.85625,49.6125 79.90625,49.8125 z M 81.875,95.65625 c -9.15,12.5875 -15.425,30.1625 -15.4375,45.625 -0.6,18.5 4.84375,37.44375 16.40625,52.03125 12.021966,16.75745 28.97029,23.43908 36,26.3125 0.3375,-2.4375 2.51049,-6.43569 2.62299,-8.88569 -3.3807,-0.87183 -6.86006,-2.41567 -10.02644,-3.86151 -17.162503,-8.0375 -28.13405,-25.0653 -32.97155,-42.9403 -3.9375,-15.9625 -3.690297,-33.7125 3.934703,-48.625 1.424466,-3.13834 3.352902,-5.72583 5.46875,-8.38199 C 85.897203,103.54301 85.25,97.75625 81.875,95.65625 z"
     id="path24"
     transform="scale(0.8,0.8)"
     sodipodi:nodetypes="ccccccccccssccccccsscccsscssccssccccccccccccccc" />
  <path
     d="m 179.66136,83.175831 c 8.8125,8.2875 21.17614,18.530419 26.27614,29.730419 9.05,20.0875 8.24029,44.22155 1.06809,67.50608 l 2.87727,3.24876 c 5.6125,-16.6375 8.21714,-35.80484 5.67964,-53.12984 C 213.3125,116.79375 207.5,103.4625 197.9375,93.25 193.025,88.1 186.56119,82.968094 180.57369,79.130594 l -0.91233,4.045237 z m -4.3913,6.128277 c 6.1125,6.125 15.52994,15.420892 20.04244,22.883392 5.6125,9.1625 7.65,19.9625 8.875,30.5 1.15,8.9125 -2.67944,20.90263 -4.29194,29.61513 l 2.99748,2.61582 c 7.67762,-24.19274 6.26946,-45.3997 -3.95554,-64.0747 -4.5375,-8.45 -14.32369,-18.752142 -21.94869,-24.477142 l -1.71875,2.9375 z"
     id="path30"
     style="fill:#3b3e95;fill-opacity:1"
     transform="scale(0.8,0.8)"
     sodipodi:nodetypes="cccccccccccccccc" />
  <path
     style="fill:#d5286a;fill-opacity:1"
     d="m 120,4.4375 c -7.7,5.925 -14.99375,14.10625 -15.59375,24.28125 0.4125,8.7625 5.98125,16.4875 12.96875,21.4375 7.7875,5.9 17.63125,8.36875 25.15625,14.65625 2.8,2.25 5.225,6.19375 3.125,9.71875 -2.3375,5.6375 -9.25625,6.0875 -14.46875,5.4375 C 121.375,78.65625 111.8875,75.425 103,71.125 96.1,70.05 87.908948,69.570693 82.5,73.84375 c -4.02575,3.180333 -5.626226,9.246136 -5.5,14.375 3.778382,14.53003 16.41714,24.32771 25.03125,35.96875 0.5875,4.425 -1.2875,8.8 -1.8125,13.1875 -2.8125,12.5375 0.10625,25.68125 5.40625,37.15625 3.95,9.1 13.1625,14.33125 22.0625,17.65625 14.1125,4.1625 30.51875,3.26875 42.90625,-5.21875 2.7625,-2.425 5.38125,0.9375 7.40625,2.625 5.6375,5.6625 11.5875,11.30625 15.25,18.53125 -8.525,-1 -15.71875,-6.0125 -23.46875,-9.25 -7.7375,-3.7 -16.55625,-2.3875 -24.84375,-2.4375 -10.125,0.075 -22.61014,4.9163 -24.84375,14.1875 -2.27122,9.42731 -3.32477,19.27372 1.34375,28 2.2428,4.19219 7.3625,6.0625 11.5,8.4375 6.9375,4.2125 14.90625,6.44375 21.59375,11.09375 2.425,1.725 4.88125,3.825 5.71875,6.8125 -1.0875,3.2375 -3.4875,6.23125 -6.625,7.65625 -8.65,1.2125 -17.4375,-1.175 -26.0625,0.3125 -4.075,1.275 -5.1375,6.51875 -9.125,7.96875 -5.3875,2.275 -12.35625,1.44375 -16.34375,6.40625 -2,3.8875 -3.5875,8.175 -3.1875,12.625 0.7375,10.95 2.3125,21.85625 3.875,32.71875 0.8,5.425 3.275,11.51875 8.5625,13.90625 5.7625,1.1875 11.66875,0.1375 17.46875,-0.3125 9.1875,-1.0875 18.475,-1.91875 27.5,-4.03125 4.7625,-1 9.725,-4.55625 10,-9.78125 0.8,-12.175 -1.9875,-24.19375 -2.9375,-36.28125 -0.025,-2.1625 -0.625,-5.075 1.875,-6.0625 5.725,-3.5875 11.38125,-7.70625 14.90625,-13.59375 6.0125,-11.275 0.8375,-26.59375 -10,-32.96875 -8.4,-6.075 -19.9875,-7.31875 -26.5625,-15.90625 -3.15,-3.5 -2.86875,-10.3125 2.09375,-12 8.3875,-2.425 17.33125,-0.5125 25.40625,2.25 8.5625,2.825 17.1,7.2375 26.375,6.3125 5.2,-0.3375 10.26875,-3.65625 11.78125,-8.78125 C 211.525,208.39375 209.275,200.75 205,195 c -6.4125,-8.95 -13.98125,-16.96875 -21.09375,-25.34375 3.025,-9.15 4.65625,-18.84375 3.53125,-28.46875 C 186.35,130.65 183.2625,119.675 175.5625,112 164.5,100.9 147.3875,97.2875 132.375,100.8125 c -6.5625,1.475 -12.5125,4.71875 -18.5,7.65625 C 108.3,103.28125 102.5125,98.225 97.5625,92.4375 c -1.6375,-1.75 -2.34375,-4.04375 -3.03125,-6.28125 9.725,1.575 17.54375,8.1 26.65625,11.25 8.9,0.5125 17.99375,0.575 26.84375,-0.5625 8.8375,-2.675 18.14375,-9.06875 19.90625,-18.71875 0.825,-8.375 1.53125,-18.2625 -5.03125,-24.6875 -9.425,-9.375 -23.55625,-11.75 -33.40625,-20.5625 -4.1375,-3.7125 0.4625,-11.39375 5.5625,-10.78125 8.2625,-0.225 16.55,0.73125 24.8125,0.90625 2.7,-5.8375 6.19375,-11.375 7.71875,-17.6875 C 151.78816,-0.36722311 135.49858,-2.1222611 120,4.4375 z m 24.21875,122.84375 c 3.89414,0.0838 7.74375,2.50313 8.90625,6.375 2.7,8.925 2.1625,18.7125 -0.8125,27.5 -1.9625,6.6125 -11.79375,7.375 -15.84375,2.375 -2.8,-3.425 -4.26875,-7.93125 -4.03125,-12.34375 0.125,-5.8375 0.4125,-11.825 2.375,-17.375 0.8625,-2.675 3.00625,-4.7875 5.59375,-5.8125 1.2125,-0.525 2.51445,-0.74668 3.8125,-0.71875 z m 1.4375,164.0625 c 1.81909,0.035 3.54687,0.51563 4,2.53125 2.825,9.7125 4.58125,19.76875 5.40625,29.84375 0.6875,4.5 -3.7,7.35 -7.625,7.8125 -9.5125,1.7625 -19.28125,1.91875 -28.78125,3.84375 -4.4,-1.4 -4.8125,-6.60625 -5.125,-10.46875 -0.65,-8.7125 -3.40625,-17.39375 -2.21875,-26.15625 1.125,-3.675 5.5375,-3.8875 8.6875,-4.5 7.5,-0.95 15.03125,-1.8625 22.53125,-2.75 0.91875,-0.0328 2.03354,-0.17727 3.125,-0.15625 z m -5.5,6.15625 c -2.4375,0.5125 -3.5875,3.15625 -5.8125,4.09375 -5.0625,1.5625 -10.59375,1.19375 -15.46875,3.40625 -2.2,1.25 -1.1,4.525 1.125,5 5.875,1.275 12.2375,-3.44375 18,-0.46875 1.2625,4.3 1.825,8.78125 3.0625,13.09375 0.35,2.2375 2.225,3.26875 4.375,3.21875 0.775,-5.3125 0.0563,-10.6625 0.21875,-16 -0.0375,-2.7 2.84375,-4.68125 2.34375,-7.40625 -2.1375,-2.2 -4.61875,-4.6375 -7.84375,-4.9375 z m -15.59375,19.625 c -1.06836,0.0519 -2.11562,0.475 -3.125,1.4375 2.45,2.9125 4.70625,6.55 8.53125,7.75 2.1875,-0.2375 3.93125,-1.425 3.21875,-3.875 -2.14687,-2.23125 -5.41992,-5.46836 -8.625,-5.3125 z"
     transform="scale(0.8,0.8)"
     id="path8"
     sodipodi:nodetypes="cccccccaccccccccccsscccccccccccccccccccccccccccccccccccccccccccccccccccccccccccccccccccccccc" />
  <path
     d="M 144.53125 117.96875 C 143.18535 117.97305 141.85625 118.09375 140.5625 118.25 C 133.875 118.625 127.725 123.05 125.6875 129.5 C 122.7375 138.4 122.95 148.05 123.4375 157.3125 C 123.4625 162.65 126.29375 167.48125 130.03125 171.09375 C 138.16875 178.68125 152.975 177.55 159.375 168.25 C 164.7875 160.4625 164.11875 150.43125 163.90625 141.40625 C 163.84375 134.11875 161.575 126.36875 155.6875 121.65625 C 152.67812 118.825 148.56895 117.95586 144.53125 117.96875 z M 144.21875 127.28125 C 148.11289 127.36504 151.9625 129.78438 153.125 133.65625 C 155.825 142.58125 155.2875 152.36875 152.3125 161.15625 C 150.35 167.76875 140.51875 168.53125 136.46875 163.53125 C 133.66875 160.10625 132.2 155.6 132.4375 151.1875 C 132.5625 145.35 132.85 139.3625 134.8125 133.8125 C 135.675 131.1375 137.81875 129.025 140.40625 128 C 141.61875 127.475 142.9207 127.25332 144.21875 127.28125 z "
     transform="scale(0.8,0.8)"
     id="path44"
     style="fill:#251e20;fill-opacity:1" />
</svg>
